<?xml version="1.0" encoding="utf-8"?>
<!-- Generator: Adobe Illustrator 19.0.0, SVG Export Plug-In . SVG Version: 6.00 Build 0)  -->
<svg version="1.1" id="图层_1" xmlns="http://www.w3.org/2000/svg" xmlns:xlink="http://www.w3.org/1999/xlink" x="0px" y="0px"
	 viewBox="0 0 48 48" style="enable-background:new 0 0 48 48;" xml:space="preserve">
<style type="text/css">
	.st0{fill-rule:evenodd;clip-rule:evenodd;fill:#040000;}
</style>
<path id="XMLID_3_" class="st0" d="M38.4,43.3H9.5c-2.7,0-4.8-2.2-4.8-4.8V9.6c0-2.7,2.2-5,4.8-5h19.4v2.4H9.5
	c-1.3,0-2.4,1.3-2.4,2.6v28.9c0,1.3,1.1,2.4,2.4,2.4h28.9c1.3,0,2.6-1.1,2.6-2.4V19.1h2.4v19.4C43.5,41.1,41.1,43.3,38.4,43.3z
	 M22.8,32.8c-0.4,0.4-0.8,0.5-1.2,0.6L11,38.7c-1.2,0.6-2.1-0.5-1.7-1.7l5.2-10.6c0.1-0.5,0.3-0.9,0.6-1.2L33.9,6.4
	c0.9-0.9,2.5-0.9,3.4,0l4.3,4.3c0.9,0.9,0.9,2.5,0,3.4L22.8,32.8z M11.6,35.5c-0.3,0.6,0.3,1.1,0.9,0.9l6.5-3.9L15.5,29L11.6,35.5z
	 M16.8,26.9l13.6-13.6l4.3,4.2L21.1,31.1C19.5,29.5,17.3,27.3,16.8,26.9z M39,11.5L36.4,9c-0.5-0.5-1.2-0.5-1.7,0l-2.5,2.5l4.2,4.3
	l2.6-2.6C39.4,12.8,39.4,12,39,11.5z"/>
</svg>
