<?xml version="1.0" encoding="utf-8"?>
<!-- Generator: Adobe Illustrator 19.0.0, SVG Export Plug-In . SVG Version: 6.00 Build 0)  -->
<svg version="1.1" id="图层_1" xmlns="http://www.w3.org/2000/svg" xmlns:xlink="http://www.w3.org/1999/xlink" x="0px" y="0px"
	 viewBox="0 0 48 48" style="enable-background:new 0 0 48 48;" xml:space="preserve">
<style type="text/css">
	.st0{fill-rule:evenodd;clip-rule:evenodd;fill:#040000;}
</style>
<g id="XMLID_7_">
	<g id="XMLID_49_">
		<path id="XMLID_50_" class="st0" d="M26.4,24.2c1.6-2.1,2.5-4.8,2.5-7.7c0-6.7-4.9-12.2-11-12.2c-6.1,0-11,5.5-11,12.2
			c0,2.9,0.9,5.6,2.5,7.7c-2.9,1-4.9,3.7-4.9,6.9V36c0,4,3.3,7.3,7.3,7.3H24c4,0,7.3-3.3,7.3-7.3v-4.9
			C31.3,27.9,29.2,25.2,26.4,24.2z M9.4,16.5c0-5.4,3.8-9.7,8.5-9.7c4.7,0,8.5,4.4,8.5,9.7s-3.8,9.7-8.5,9.7
			C13.2,26.2,9.4,21.9,9.4,16.5z M28.9,35.4c0,3-2.7,5.5-6,5.5h-10c-3.3,0-6-2.5-6-5.5v-3.7c0-2.6,2-4.7,4.6-5.3
			c1.8,1.4,4,2.3,6.4,2.3c2.4,0,4.6-0.8,6.4-2.3c2.6,0.6,4.6,2.7,4.6,5.3V35.4z M39.3,27.1c1.3-1.8,2.1-4.1,2.1-6.6
			c0-5.7-4.2-10.2-9.3-10.3c-2.1,0-1.8,2.7,0,2.7c4,0,6.6,3.1,6.6,7.6c0,3.7-1.7,6.4-4.5,7.3c-2.7,0.9-1.4,3.3,0.6,2.6
			c1-0.3,1.9-0.8,2.7-1.5c2.2,0.5,3.3,2.3,3.3,4.5v3.1c0,2.6-1.6,4-4.4,4h-3.9c-1.1,1.1-0.9,2-0.2,2.7h5c3.4,0,6.2-2.8,6.2-6.2v-4.1
			C43.5,30.2,41.7,27.9,39.3,27.1z"/>
	</g>
</g>
</svg>
