<?xml version="1.0" encoding="utf-8"?>
<!-- Generator: Adobe Illustrator 19.0.0, SVG Export Plug-In . SVG Version: 6.00 Build 0)  -->
<svg version="1.1" id="图层_1" xmlns="http://www.w3.org/2000/svg" xmlns:xlink="http://www.w3.org/1999/xlink" x="0px" y="0px"
	 viewBox="0 0 48 48" style="enable-background:new 0 0 48 48;" xml:space="preserve">
<path id="XMLID_428_" d="M40.3,6.4c-0.6-0.7-1.4-1-2.3-1H9.8c-0.9,0-1.7,0.4-2.3,1C7,7.1,6.7,8,6.8,8.9l3.8,31.4
	c0.2,1.8,1.8,3.2,3.6,3.2h19.5c1.8,0,3.3-1.4,3.6-3.2l3.4-27.8c0-0.1,0.1-0.2,0.1-0.3c0,0,0,0,0-0.1l0.4-3.2
	C41.2,8,40.9,7.1,40.3,6.4z M10.2,17.7l9.7,17.2c0.3,0.5,0.1,1.1-0.4,1.3c-0.2,0.1-0.3,0.1-0.5,0.1c-0.3,0-0.7-0.2-0.8-0.5
	l-7.4-13.1L10.2,17.7z M29.5,34.9c0.3,0.5,0.1,1.1-0.4,1.3c-0.2,0.1-0.3,0.1-0.5,0.1c-0.3,0-0.7-0.2-0.8-0.5L15.5,13.9
	c-0.3-0.5-0.1-1.1,0.4-1.3c0.5-0.3,1.1-0.1,1.3,0.4L29.5,34.9z M20.7,12.6c0.5-0.3,1.1-0.1,1.3,0.4l12.4,21.9
	c0.3,0.5,0.1,1.1-0.4,1.3c-0.2,0.1-0.3,0.1-0.5,0.1c-0.3,0-0.7-0.2-0.8-0.5L20.3,13.9C20,13.5,20.2,12.9,20.7,12.6z M24.7,34.9
	c0.3,0.5,0.1,1.1-0.4,1.3c-0.2,0.1-0.3,0.1-0.5,0.1c-0.3,0-0.7-0.2-0.8-0.5L10.6,13.9c-0.3-0.5-0.1-1.1,0.4-1.3
	c0.5-0.3,1.1-0.1,1.3,0.4L24.7,34.9z M11.5,28.6l3.6,6.3c0.3,0.5,0.1,1.1-0.4,1.3c-0.2,0.1-0.3,0.1-0.5,0.1c-0.3,0-0.7-0.2-0.8-0.5
	l-1.3-2.3L11.5,28.6z M35,40c-0.1,0.7-0.7,1.2-1.3,1.2H14.2c-0.6,0-1.2-0.6-1.3-1.2l-0.3-2.2h22.7L35,40z M35.9,33l-10.8-19
	c-0.3-0.5-0.1-1.1,0.4-1.3c0.5-0.3,1.1-0.1,1.3,0.4l9.5,16.7L35.9,33z M36.7,25.9l-6.8-12c-0.3-0.5-0.1-1.1,0.4-1.3
	c0.5-0.3,1.1-0.1,1.3,0.4l5.5,9.7L36.7,25.9z M37.6,18.9l-2.8-5c-0.3-0.5-0.1-1.1,0.4-1.3c0.5-0.3,1.1-0.1,1.3,0.4l1.5,2.7
	L37.6,18.9z M38.5,11.1H9.4L9.1,8.6c0-0.3,0-0.5,0.2-0.7c0.1-0.2,0.3-0.2,0.6-0.2H38c0.2,0,0.4,0.1,0.6,0.2c0.2,0.2,0.2,0.4,0.2,0.7
	L38.5,11.1z"/>
</svg>
