<?xml version="1.0" encoding="utf-8"?>
<!-- Generator: Adobe Illustrator 19.0.0, SVG Export Plug-In . SVG Version: 6.00 Build 0)  -->
<svg version="1.1" id="图层_1" xmlns="http://www.w3.org/2000/svg" xmlns:xlink="http://www.w3.org/1999/xlink" x="0px" y="0px"
	 viewBox="0 0 48 48" style="enable-background:new 0 0 48 48;" xml:space="preserve">
<style type="text/css">
	.st0{fill:#040000;}
</style>
<g id="XMLID_11_">
	<g id="XMLID_73_">
		<path id="XMLID_74_" class="st0" d="M38.3,15H9.7c-2.1,0-3.9,1.7-3.9,3.9v19.6c0,2.1,1.7,3.9,3.9,3.9h28.6c2.1,0,3.9-1.7,3.9-3.9
			V18.9C42.2,16.7,40.4,15,38.3,15z M39.9,38.5c0,0.9-0.7,1.6-1.6,1.6H9.7c-0.9,0-1.6-0.7-1.6-1.6V18.9c0-0.9,0.7-1.6,1.6-1.6h28.6
			c0.9,0,1.6,0.7,1.6,1.6V38.5z M23.1,19.5H13c-1.4,0-2.7,1.4-2.7,2.9v2.1c0,0.3,0.3,0.6,0.6,0.6c0.3,0,0.6-0.2,0.6-0.6v-2.1
			c0-0.9,0.8-1.8,1.6-1.8h10.1c0.3,0,0.6-0.2,0.6-0.6S23.4,19.5,23.1,19.5z M10.9,25.6c-0.3,0-0.6,0.2-0.6,0.6v1.1
			c0,0.3,0.3,0.6,0.6,0.6c0.3,0,0.6-0.3,0.6-0.6v-1.1C11.4,25.9,11.2,25.6,10.9,25.6z M10.3,12.8h27.4c0.6,0,1.1-0.5,1.1-1.1
			c0-0.6-0.5-1.1-1.1-1.1H10.3c-0.6,0-1.1,0.5-1.1,1.1C9.2,12.3,9.7,12.8,10.3,12.8z M13.6,8.3h20.7c0.6,0,1.1-0.5,1.1-1.1
			c0-0.6-0.5-1.1-1.1-1.1H13.6c-0.6,0-1.1,0.5-1.1,1.1C12.5,7.8,13,8.3,13.6,8.3z"/>
	</g>
</g>
</svg>
