<?xml version="1.0" encoding="utf-8"?>
<!-- Generator: Adobe Illustrator 19.0.0, SVG Export Plug-In . SVG Version: 6.00 Build 0)  -->
<svg version="1.1" id="图层_1" xmlns="http://www.w3.org/2000/svg" xmlns:xlink="http://www.w3.org/1999/xlink" x="0px" y="0px"
	 viewBox="0 0 48 48" style="enable-background:new 0 0 48 48;" xml:space="preserve">
<style type="text/css">
	.st0{fill-rule:evenodd;clip-rule:evenodd;fill:#040000;}
</style>
<path id="XMLID_3_" class="st0" d="M42.2,23.1L26,42.5c-1.8,1.9-2.2,1.9-4,0L5.8,23.1c-1.4-2.1-2.6-4.3-2.6-7.4
	c0-5.7,4.3-11,10.4-11c4.3,0,7.7,2.4,10.4,5.2c2.8-2.7,6.1-5.2,10.4-5.2c6.1,0,10.4,5.2,10.4,11C44.8,18.8,43.8,21.1,42.2,23.1z
	 M39.6,22.6c2-2.5,2.6-4.4,2.6-6.8c0-4.5-3.3-8.5-7.8-8.5c-3.8,0-8.1,3.9-10.4,6.8c-2.3-2.9-6.6-6.8-10.4-6.8
	c-4.6,0-7.8,4.1-7.8,8.5c0,2.4,0.7,4.1,2.6,6.7L24,41.2L39.6,22.6z"/>
</svg>
