<?xml version="1.0" encoding="utf-8"?>
<!-- Generator: Adobe Illustrator 19.0.0, SVG Export Plug-In . SVG Version: 6.00 Build 0)  -->
<svg version="1.1" id="图层_1" xmlns="http://www.w3.org/2000/svg" xmlns:xlink="http://www.w3.org/1999/xlink" x="0px" y="0px"
	 viewBox="0 0 48 48" style="enable-background:new 0 0 48 48;" xml:space="preserve">
<style type="text/css">
	.st0{fill-rule:evenodd;clip-rule:evenodd;fill:#040000;}
</style>
<g id="XMLID_2_">
	<g id="XMLID_41_">
		<path id="XMLID_42_" class="st0" d="M35.4,12.3c-5.3,1.5-6.3,5.8-5.9,8.5c-3.8-4.5-3.6-9.6-3.6-17c-12.2,4.6-9.3,17.8-9.7,21.8
			c-3.1-2.5-3.6-8.5-3.6-8.5c-3.2,1.7-4.9,6.1-4.9,9.7c0,8.7,7.1,15.8,15.8,15.8c8.7,0,15.8-7.1,15.8-15.8
			C39.1,21.7,35.3,19.3,35.4,12.3z M24,40.2c-7.7,0-13.9-6.5-13.9-13.8c0-1.7,0-3.1,1.2-4.4c-0.1,0.8,1.7,7.3,7.6,7
			c-0.3-5-1.6-17.2,4.7-21.5c-0.6,6.7,1.1,15.6,8.3,16.9c-0.4-2.7-0.4-7.1,1.5-7.9c0.2,4.1,3.2,6.6,3.2,10.5
			C36.6,34.2,29.7,40.2,24,40.2z"/>
	</g>
</g>
</svg>
