<?xml version="1.0" encoding="utf-8"?>
<!-- Generator: Adobe Illustrator 19.0.0, SVG Export Plug-In . SVG Version: 6.00 Build 0)  -->
<svg version="1.1" id="图层_1" xmlns="http://www.w3.org/2000/svg" xmlns:xlink="http://www.w3.org/1999/xlink" x="0px" y="0px"
	 viewBox="0 0 48 48" style="enable-background:new 0 0 48 48;" xml:space="preserve">
<style type="text/css">
	.st0{fill-rule:evenodd;clip-rule:evenodd;fill:#040000;}
</style>
<path id="XMLID_6_" class="st0" d="M35.9,19.3c-0.4,0.4-1.6,0.2-2-0.2v-3.5h-5.1L14.7,35H8.2c-0.7,0-1.3-0.7-1.3-1.4
	c0-0.7,0.6-1.2,1.3-1.2h5.1l14.1-19.3H34V9.4c0.4-0.4,1.6-0.2,2,0.2l5.5,4.1c0.4,0.4,0.4,1,0,1.4L35.9,19.3z M19.5,19.8l-1.6,2.1
	l-4.5-6.2H8.2c-0.7,0-1.3-0.5-1.3-1.2c0-0.7,0.6-1.4,1.3-1.4h6.4C15,13.5,19.5,19.8,19.5,19.8z M28.8,32.4H34v-3.5
	c0.4-0.4,1.6-0.5,2-0.1l5.5,4.1c0.4,0.4,0.4,1,0,1.4l-5.5,4.1c-0.4,0.4-1.6,0.5-2,0.2v-3.7h-6.4l-4.9-6.6l1.6-2.1L28.8,32.4z"/>
</svg>
