<?xml version="1.0" encoding="utf-8"?>
<!-- Generator: Adobe Illustrator 19.0.0, SVG Export Plug-In . SVG Version: 6.00 Build 0)  -->
<svg version="1.1" id="图层_1" xmlns="http://www.w3.org/2000/svg" xmlns:xlink="http://www.w3.org/1999/xlink" x="0px" y="0px"
	 viewBox="0 0 48 48" style="enable-background:new 0 0 48 48;" xml:space="preserve">
<style type="text/css">
	.st0{fill-rule:evenodd;clip-rule:evenodd;fill:#040000;}
</style>
<g id="XMLID_9_">
	<g id="XMLID_72_">
		<path id="XMLID_73_" class="st0" d="M24.1,29.4H11.6c-0.7,0-1.3,0.6-1.3,1.3s0.6,1.3,1.3,1.3h12.5c0.7,0,1.3-0.6,1.3-1.3
			S24.8,29.4,24.1,29.4z M24.1,23.7H11.6c-0.7,0-1.3,0.6-1.3,1.3c0,0.7,0.6,1.3,1.3,1.3h12.5c0.7,0,1.3-0.6,1.3-1.3
			C25.4,24.3,24.8,23.7,24.1,23.7z M38.8,8.9H9.2c-3.1,0-5.6,2.5-5.6,5.6V34c0,3.1,2.5,5.6,5.6,5.6h29.6c3.1,0,5.6-2.5,5.6-5.6V14.5
			C44.4,11.4,41.9,8.9,38.8,8.9z M42,34.3c0,1.5-1.3,2.8-2.8,2.8H8.7c-1.5,0-2.8-1.3-2.8-2.8V14c0-1.5,1.3-2.8,2.8-2.8h30.5
			c1.5,0,2.8,1.3,2.8,2.8V34.3z M35.5,15.9h-3.1c-1.5,0-2.8,1.3-2.8,2.8v3.1c0,1.5,1.3,2.8,2.8,2.8h3.1c1.5,0,2.8-1.3,2.8-2.8v-3.1
			C38.2,17.2,37,15.9,35.5,15.9z M24.1,17.4H11.6c-0.7,0-1.3,0.6-1.3,1.3c0,0.7,0.6,1.3,1.3,1.3h12.5c0.7,0,1.3-0.6,1.3-1.3
			C25.4,18,24.8,17.4,24.1,17.4z"/>
	</g>
</g>
</svg>
