<?xml version="1.0" encoding="utf-8"?>
<!-- Generator: Adobe Illustrator 19.0.0, SVG Export Plug-In . SVG Version: 6.00 Build 0)  -->
<svg version="1.1" id="图层_1" xmlns="http://www.w3.org/2000/svg" xmlns:xlink="http://www.w3.org/1999/xlink" x="0px" y="0px"
	 viewBox="0 0 48 48" style="enable-background:new 0 0 48 48;" xml:space="preserve">
<style type="text/css">
	.st0{fill-rule:evenodd;clip-rule:evenodd;fill:#040000;}
</style>
<path id="XMLID_22_" class="st0" d="M36.8,43.8H11.2c-4.2,0-7.6-3.4-7.6-7.6V11.2C3.6,7,7,3.6,11.2,3.6h25.5c4.2,0,7.6,3.4,7.6,7.6
	v24.9C44.4,40.4,41,43.8,36.8,43.8z M13.9,6.2h-3.2c-2.5,0-4.6,2-4.6,4.6v2.8c0.1,0,0.2-0.1,0.3-0.1h3.4c0.7,0,1.3,0.6,1.3,1.3
	c0,0.7-0.6,1.3-1.3,1.3H6.4c-0.1,0-0.2,0-0.3-0.1v5.2h3.7c0.7,0,1.3,0.6,1.3,1.3v0c0,0.7-0.6,1.3-1.3,1.3H6.2v5.2
	c0.1,0,0.2-0.1,0.3-0.1h3.4c0.7,0,1.3,0.6,1.3,1.3s-0.6,1.3-1.3,1.3H6.4c-0.1,0-0.2,0-0.3-0.1v4.8c0,2.5,2,4.6,4.6,4.6h3.2V6.2z
	 M41.5,10.8c0-2.5-2-4.6-4.6-4.6H16.2v34.9H37c2.5,0,4.6-2,4.6-4.6V10.8z M32.1,34.1h-7.4c-2.4,0-4.4-2-4.4-4.4v-3
	c0-1.9,1.3-3.6,3-4.2c-0.9-1.3-1.5-2.9-1.5-4.7c0-4.1,3-7.4,6.6-7.4c3.7,0,6.6,3.3,6.6,7.4c0,1.8-0.6,3.4-1.5,4.7
	c1.7,0.6,3,2.2,3,4.2v3C36.5,32.1,34.5,34.1,32.1,34.1z M28.4,12.4c-2.9,0-4.9,2.2-4.9,5.4c0,3.3,2,5.5,4.9,5.5
	c2.9,0,4.9-2.2,4.9-5.5C33.2,14.5,31.2,12.4,28.4,12.4z M34.8,27.1c0-1.6-1-2.9-2.6-3.2c-1.1,0.9-2.4,1.4-3.9,1.4
	c-1.4,0-2.8-0.5-3.9-1.4c-1.6,0.3-2.3,1.7-2.3,3.2l0,2.2c0,1.8,1.1,3.1,3.1,3.1h6c2,0,3.4-1.3,3.4-3.1V27.1z"/>
</svg>
