<?xml version="1.0" encoding="utf-8"?>
<!-- Generator: Adobe Illustrator 19.0.0, SVG Export Plug-In . SVG Version: 6.00 Build 0)  -->
<svg version="1.1" id="图层_1" xmlns="http://www.w3.org/2000/svg" xmlns:xlink="http://www.w3.org/1999/xlink" x="0px" y="0px"
	 viewBox="0 0 48 48" style="enable-background:new 0 0 48 48;" xml:space="preserve">
<style type="text/css">
	.st0{fill-rule:evenodd;clip-rule:evenodd;fill:#040000;}
</style>
<path id="XMLID_4_" class="st0" d="M37.7,38H10.3c-2.5,0-4.6-2.1-4.6-4.6V15.1c0-2.5,2.1-4.6,4.6-4.6h27.5c2.5,0,4.6,2.1,4.6,4.6
	v18.3C42.3,35.9,40.3,38,37.7,38z M40,15.1c0-1.3-1-2.3-2.3-2.3H10.3c-1.3,0-2.3,1-2.3,2.3v18.3c0,1.3,1,2.3,2.3,2.3h27.5
	c1.3,0,2.3-1,2.3-2.3V15.1z M35.5,24.3h-4.6c-1.3,0-2.3-1-2.3-2.3v-4.6c0-1.3,1-2.3,2.3-2.3h4.6c1.3,0,2.3,1,2.3,2.3V22
	C37.7,23.2,36.7,24.3,35.5,24.3z M35.5,18.5c0-0.6-0.5-1.1-1.1-1.1H32c-0.6,0-1.1,0.5-1.1,1.1v2.3c0,0.6,0.5,1.1,1.1,1.1h2.3
	c0.6,0,1.1-0.5,1.1-1.1V18.5z M25.1,33.4H11.4c-0.6,0-1.1-0.5-1.1-1.1c0-0.6,0.5-1.1,1.1-1.1h13.7c0.6,0,1.1,0.5,1.1,1.1
	C26.3,32.9,25.8,33.4,25.1,33.4z M25.1,28.8H11.4c-0.6,0-1.1-0.5-1.1-1.1c0-0.6,0.5-1.1,1.1-1.1h13.7c0.6,0,1.1,0.5,1.1,1.1
	C26.3,28.3,25.8,28.8,25.1,28.8z"/>
</svg>
