<?xml version="1.0" encoding="utf-8"?>
<!-- Generator: Adobe Illustrator 19.0.0, SVG Export Plug-In . SVG Version: 6.00 Build 0)  -->
<svg version="1.1" id="图层_1" xmlns="http://www.w3.org/2000/svg" xmlns:xlink="http://www.w3.org/1999/xlink" x="0px" y="0px"
	 viewBox="0 0 48 48" style="enable-background:new 0 0 48 48;" xml:space="preserve">
<path d="M43.4,31.1c0-2.4-1.6-3.5-2.5-3.7l-9-2.1c-0.5-0.1-0.9,0-1.2,0.3l-2.8,2.8c-6.5-2.7-9.7-8.6-10.6-10.7l3.3-3.3
	c0.3-0.4,0.4-0.9,0.3-1.3L18.3,5c-0.3-1-0.9-1.7-1.7-2.2C16,2.5,15.4,2.5,15,2.6C9.1,2.1,6.5,8.5,6.5,8.8C6.4,8.9,6.4,8.9,6.4,9
	c-1.6,7.8,5,17,11.1,22.6c4.6,4.2,11.1,8.3,16.7,8.3c0.9,0,1.9-0.1,2.8-0.3h0.1C43.5,36.9,43.5,32,43.4,31.1z M36.2,37.2
	c-4.2,1.2-10.9-1.7-17.1-7.4c-6-5.5-11.5-13.9-10.3-20.2c0.3-0.8,2.3-4.9,6.1-4.6c0.2,0.1,0.4,0.1,0.6,0c0.1,0.1,0.3,0.2,0.4,0.7
	l2.4,7.4l-3.4,3.4c-0.3,0.3-0.5,0.8-0.3,1.3c0.2,0.4,3.5,9.8,13.2,13.2c0.5,0.2,1,0,1.3-0.3l2.9-2.9l8.3,2c0.1,0,0.7,0.1,0.6,1.2
	c0,0.1,0,0.1,0,0.2C40.9,31.3,41.3,35,36.2,37.2z"/>
</svg>
