<?xml version="1.0" encoding="utf-8"?>
<!-- Generator: Adobe Illustrator 19.0.0, SVG Export Plug-In . SVG Version: 6.00 Build 0)  -->
<svg version="1.1" id="图层_1" xmlns="http://www.w3.org/2000/svg" xmlns:xlink="http://www.w3.org/1999/xlink" x="0px" y="0px"
	 viewBox="0 0 48 48" style="enable-background:new 0 0 48 48;" xml:space="preserve">
<g>
	<g id="XMLID_509_">
		<path id="XMLID_510_" d="M24,11.7c-5.4,0-9.7,4.4-9.7,9.7c0,5.4,4.4,9.7,9.7,9.7c5.4,0,9.7-4.4,9.7-9.7
			C33.7,16.1,29.3,11.7,24,11.7z M24,29.1c-4.2,0-7.6-3.4-7.6-7.6c0-4.2,3.4-7.6,7.6-7.6s7.6,3.4,7.6,7.6
			C31.6,25.7,28.2,29.1,24,29.1z M38.5,21.6c0-0.3-0.1-0.6-0.3-0.8l-2.6-2.4l1.1-3.4c0.1-0.3,0-0.6-0.1-0.8
			c-0.1-0.2-0.4-0.4-0.7-0.5l-3.4-0.8l-0.8-3.5c-0.1-0.3-0.2-0.5-0.5-0.7c-0.3-0.1-0.6-0.2-0.8-0.1l-3.3,1.1L24.8,7
			c-0.4-0.4-1.2-0.4-1.6,0l-2.3,2.6l-3.3-1.1c-0.3-0.1-0.6-0.1-0.8,0.1c-0.3,0.1-0.4,0.4-0.5,0.7l-0.8,3.5l-3.4,0.8
			c-0.3,0.1-0.5,0.2-0.7,0.5c-0.1,0.3-0.2,0.6-0.1,0.8l1.1,3.4l-2.6,2.4c-0.2,0.2-0.3,0.5-0.3,0.8c0,0.3,0.1,0.6,0.3,0.8l2.6,2.4
			l-1.1,3.4c-0.1,0.3,0,0.6,0.1,0.8c0.1,0.3,0.4,0.4,0.7,0.5l3.4,0.8l0.8,3.5c0.1,0.3,0.2,0.5,0.5,0.7c0.3,0.1,0.6,0.2,0.8,0.1
			l0.1,0v6.1c0,0.4,0.2,0.8,0.6,0.9c0.4,0.2,0.8,0.1,1.1-0.1l4.5-3.7l4.5,3.7c0.2,0.2,0.4,0.2,0.7,0.2c0.2,0,0.3,0,0.4-0.1
			c0.4-0.2,0.6-0.5,0.6-0.9v-6.1l0.1,0c0.3,0.1,0.6,0.1,0.8-0.1c0.3-0.1,0.4-0.4,0.5-0.7l0.8-3.5l3.4-0.8c0.3-0.1,0.5-0.2,0.7-0.5
			c0.1-0.3,0.2-0.5,0.1-0.8l-1.1-3.4l2.6-2.4C38.3,22.1,38.5,21.9,38.5,21.6z M19.8,38.5v-4.6l1.1-0.3l2.1,2.4L19.8,38.5z
			 M28.2,38.5L25,35.9l2.1-2.4l1.1,0.3V38.5z M33.7,23.7c-0.3,0.3-0.4,0.7-0.3,1.1l0.9,3l-2.9,0.7c-0.4,0.1-0.7,0.4-0.8,0.8
			l-0.5,2.4c-0.2-0.3-0.5-0.5-0.9-0.5c-0.4,0-0.8,0.3-1,0.6l-1.1-0.4c-0.4-0.1-0.8,0-1.1,0.3l-2,2.3l-2-2.3
			c-0.2-0.2-0.5-0.4-0.8-0.4c-0.1,0-0.2,0-0.3,0.1l-1.1,0.4c-0.2-0.4-0.5-0.6-1-0.6c-0.4,0-0.7,0.2-0.9,0.5l-0.5-2.4
			c-0.1-0.4-0.4-0.7-0.8-0.8l-2.9-0.7l0.9-3c0.1-0.4,0-0.8-0.3-1.1l-2.2-2.1l2.2-2.1c0.3-0.3,0.4-0.7,0.3-1.1l-0.9-3l2.9-0.7
			c0.4-0.1,0.7-0.4,0.8-0.8l0.6-3l2.8,0.9c0.4,0.1,0.8,0,1.1-0.3l2-2.3l2,2.3c0.3,0.3,0.7,0.4,1.1,0.3l2.8-0.9l0.6,3
			c0.1,0.4,0.4,0.7,0.8,0.8l2.9,0.7l-0.9,3c-0.1,0.4,0,0.8,0.3,1.1l2.2,2.1L33.7,23.7z"/>
	</g>
</g>
</svg>
