<?xml version="1.0" encoding="utf-8"?>
<!-- Generator: Adobe Illustrator 19.0.0, SVG Export Plug-In . SVG Version: 6.00 Build 0)  -->
<svg version="1.1" id="图层_1" xmlns="http://www.w3.org/2000/svg" xmlns:xlink="http://www.w3.org/1999/xlink" x="0px" y="0px"
	 viewBox="0 0 48 48" style="enable-background:new 0 0 48 48;" xml:space="preserve">
<style type="text/css">
	.st0{fill-rule:evenodd;clip-rule:evenodd;fill:#040000;}
</style>
<path id="XMLID_2_" class="st0" d="M36.7,31.3v4.9c0,4-3.3,7.3-7.3,7.3H17.2c-4,0-7.3-3.3-7.3-7.3v-4.9c0-3.2,2.1-5.9,4.9-6.9
	c-1.6-2.1-2.5-4.8-2.5-7.7c0-6.7,4.9-12.2,11-12.2s11,5.5,11,12.2c0,2.9-0.9,5.6-2.5,7.7C34.6,25.4,36.7,28.1,36.7,31.3z M31.8,16.7
	c0-5.4-3.8-9.7-8.5-9.7c-4.7,0-8.5,4.4-8.5,9.7s3.8,9.7,8.5,9.7C28,26.4,31.8,22.1,31.8,16.7z M34.2,31.9c0-2.6-2-4.7-4.6-5.3
	c-1.8,1.4-4,2.3-6.4,2.3c-2.4,0-4.6-0.8-6.4-2.3c-2.6,0.6-4.6,2.7-4.6,5.3v3.7c0,3,2.7,5.5,6,5.5h10c3.3,0,6-2.5,6-5.5V31.9z"/>
</svg>
