<?xml version="1.0" encoding="utf-8"?>
<!-- Generator: Adobe Illustrator 19.0.0, SVG Export Plug-In . SVG Version: 6.00 Build 0)  -->
<svg version="1.1" id="图层_1" xmlns="http://www.w3.org/2000/svg" xmlns:xlink="http://www.w3.org/1999/xlink" x="0px" y="0px"
	 viewBox="0 0 48 48" style="enable-background:new 0 0 48 48;" xml:space="preserve">
<style type="text/css">
	.st0{fill:#040000;}
</style>
<path id="XMLID_10_" class="st0" d="M44.2,20c-0.9-1.2-2.2-1.8-3.6-1.8h-8.7c-0.4,0-0.6-0.2-0.7-0.3c-0.1-0.1-0.3-0.4-0.2-0.8
	c1-5.7,0.9-9.5-0.5-11.2c-0.5-0.7-1.3-1.1-2.1-1.2c-5.5-0.6-6.8,3.1-7.4,7.2c-0.4,3.3-2.2,7.4-8,8.4c-2,0.3-3.7,0.5-5.1,0.5
	c-2.1,0-3.8,1.7-3.8,3.8v13.9c0,2.3,1.9,4.2,4.2,4.2h27.6c2,0,3.7-1.3,4.3-3.2L44.9,24C45.3,22.6,45.1,21.1,44.2,20z M6.4,38.4V24.5
	c0-0.8,0.6-1.4,1.4-1.4c0.8,0,1.7-0.1,2.6-0.2v17.3H8.3C7.3,40.2,6.4,39.4,6.4,38.4z M42.6,23.3l-4.7,15.5c-0.3,0.9-1.1,1.5-2,1.5
	H12.8V22.6c0.2,0,0.3,0,0.5-0.1c5.7-1,9.2-4.7,10-10.4c0.5-3.9,1.4-5.2,3.8-5.2c0.3,0,0.6,0,0.9,0.1c0.1,0,0.3,0.1,0.4,0.3
	c0.7,0.9,1,3.8,0,9.4c-0.2,1,0.1,2,0.7,2.7c0.6,0.8,1.6,1.2,2.6,1.2h8.7c0.7,0,1.3,0.3,1.7,0.8C42.7,22,42.8,22.6,42.6,23.3z"/>
</svg>
